<svg xmlns="http://www.w3.org/2000/svg" xmlns:xlink="http://www.w3.org/1999/xlink" viewBox="0 0 500 500"><defs><style>.cls-1{fill:none;}.cls-2{clip-path:url(#clip-path);}.cls-3{clip-path:url(#clip-path-2);}.cls-4{fill:#f20530;}.cls-5{fill:#a60311;}</style><clipPath id="clip-path" transform="translate(0 0)"><rect class="cls-1" width="500" height="500"/></clipPath><clipPath id="clip-path-2" transform="translate(0 0)"><rect class="cls-1" width="500" height="500"/></clipPath></defs><g id="Layer_2" data-name="Layer 2"><g id="Layer_1-2" data-name="Layer 1"><g id="Mark"><g class="cls-2"><g class="cls-3"><path class="cls-4" d="M402,384.62v25.17H351.65V384.62a109.61,109.61,0,0,0-58-96.58c-3.05-1.62-6.18-3.13-9.4-4.45a108.48,108.48,0,0,0-42.08-8.44V224.82a158.94,158.94,0,0,1,97.87,33.58c1.87,1.44,3.69,2.93,5.49,4.46A159.53,159.53,0,0,1,402,384.62" transform="translate(0 0)"/><path class="cls-5" d="M340.07,258.4a173,173,0,0,1-55.8,25.19,108.21,108.21,0,0,0-42.07-8.44V224.82a158.92,158.92,0,0,1,97.87,33.58" transform="translate(0 0)"/><path class="cls-4" d="M402,90.21v25.17c0,88.12-71.67,159.77-159.77,159.77l-25.16,0V224.82H242.2A109.57,109.57,0,0,0,351.65,115.38V90.21Z" transform="translate(0 0)"/><path class="cls-4" d="M132.75,250A109.57,109.57,0,0,0,242.2,359.46v0h25.16v50.35H242.2c-88.1,0-159.77-71.68-159.77-159.8S154.1,90.22,242.2,90.22h25.16v50.33H242.2A109.56,109.56,0,0,0,132.75,250" transform="translate(0 0)"/><path class="cls-4" d="M500,500H0V0H500ZM24,476H476V24H24Z" transform="translate(0 0)"/></g></g></g></g></g></svg>